HIERARCHY
ROOT Hips
{
	OFFSET 0.000000 71.427986 0.000000
	CHANNELS 6 Xposition Yposition Zposition Xrotation Yrotation Zrotation
	JOINT Pelvis
	{
		OFFSET 0.000000 0.000000 0.000000
		CHANNELS 3 Xrotation Yrotation Zrotation
		JOINT LeftUpLeg
		{
			OFFSET 6.797100 -2.508499 -1.318700
			CHANNELS 3 Xrotation Yrotation Zrotation
			JOINT LeftLeg
			{
				OFFSET 0.069008 -29.241863 0.690200
				CHANNELS 3 Xrotation Yrotation Zrotation
				JOINT LeftFoot
				{
					OFFSET -0.069008 -29.568123 -0.266800
					CHANNELS 3 Xrotation Yrotation Zrotation
					JOINT LeftToeBase
					{
						OFFSET 3.145500 -8.631000 16.059900
						CHANNELS 3 Xrotation Yrotation Zrotation
						End Site
						{
							OFFSET 0.000000 18.501587 0.000000
						}
					}
				}
			}
			JOINT Left_ShortSleeve
			{
				OFFSET 0.265923 -10.480953 1.153800
				CHANNELS 3 Xrotation Yrotation Zrotation
				End Site
				{
					OFFSET 1.725763 19.823879 0.000000
				}
			}
		}
		JOINT RightUpLeg
		{
			OFFSET -6.797100 -2.508499 -1.318700
			CHANNELS 3 Xrotation Yrotation Zrotation
			JOINT RightLeg
			{
				OFFSET -0.082453 -29.241932 0.688000
				CHANNELS 3 Xrotation Yrotation Zrotation
				JOINT RightFoot
				{
					OFFSET 0.082453 -29.568058 -0.264600
					CHANNELS 3 Xrotation Yrotation Zrotation
					JOINT RightToeBase
					{
						OFFSET -3.115300 -8.682800 16.113400
						CHANNELS 3 Xrotation Yrotation Zrotation
						End Site
						{
							OFFSET 0.000000 18.567114 0.000000
						}
					}
				}
			}
			JOINT Right_ShortSleeve
			{
				OFFSET -0.265923 -10.480953 1.153800
				CHANNELS 3 Xrotation Yrotation Zrotation
				End Site
				{
					OFFSET -1.725766 19.823910 0.000000
				}
			}
		}
	}
	JOINT Spine
	{
		OFFSET 0.000000 13.368103 0.470500
		CHANNELS 3 Xrotation Yrotation Zrotation
		JOINT Spine1
		{
			OFFSET 0.147000 13.837402 0.538800
			CHANNELS 3 Xrotation Yrotation Zrotation
			JOINT Spine2
			{
				OFFSET 0.168000 16.242897 -1.435500
				CHANNELS 3 Xrotation Yrotation Zrotation
				JOINT Neck
				{
					OFFSET 0.217200 18.631500 -1.679100
					CHANNELS 3 Xrotation Yrotation Zrotation
					JOINT Head
					{
						OFFSET 0.000000 6.599396 1.385900
						CHANNELS 3 Xrotation Yrotation Zrotation
						JOINT Hat
						{
							OFFSET -0.532200 27.220596 -10.096100
							CHANNELS 3 Xrotation Yrotation Zrotation
							End Site
							{
								OFFSET 0.000000 22.029861 0.000000
							}
						}
						JOINT HairD
						{
							OFFSET -10.777400 17.437393 -1.325900
							CHANNELS 3 Xrotation Yrotation Zrotation
							JOINT HairD1
							{
								OFFSET -3.290299 -11.051193 1.062200
								CHANNELS 3 Xrotation Yrotation Zrotation
								End Site
								{
									OFFSET 0.000000 11.579437 0.000000
								}
							}
						}
						JOINT HairB
						{
							OFFSET -10.777400 17.437393 1.467900
							CHANNELS 3 Xrotation Yrotation Zrotation
							JOINT HairB1
							{
								OFFSET -1.561200 -12.956299 3.590200
								CHANNELS 3 Xrotation Yrotation Zrotation
								End Site
								{
									OFFSET 0.000000 13.534866 0.000000
								}
							}
						}
						JOINT HairA
						{
							OFFSET 9.713100 17.437393 1.467900
							CHANNELS 3 Xrotation Yrotation Zrotation
							JOINT HairA1
							{
								OFFSET 1.561200 -12.956299 3.590200
								CHANNELS 3 Xrotation Yrotation Zrotation
								End Site
								{
									OFFSET 0.000000 13.534866 0.000000
								}
							}
						}
						JOINT HairC
						{
							OFFSET 9.713100 17.437393 -1.325900
							CHANNELS 3 Xrotation Yrotation Zrotation
							JOINT HairC1
							{
								OFFSET 3.290300 -11.051193 1.062200
								CHANNELS 3 Xrotation Yrotation Zrotation
								End Site
								{
									OFFSET 0.000000 11.579437 0.000000
								}
							}
						}
					}
				}
				JOINT LeftShoulder
				{
					OFFSET 5.101800 15.108002 -2.763700
					CHANNELS 3 Xrotation Yrotation Zrotation
					JOINT LeftArm
					{
						OFFSET 9.825497 2.506317 -1.597400
						CHANNELS 3 Xrotation Yrotation Zrotation
						JOINT LeftForeArm
						{
							OFFSET 21.966244 0.000000 0.000000
							CHANNELS 3 Xrotation Yrotation Zrotation
							JOINT LeftHand
							{
								OFFSET 33.879036 0.000000 0.000000
								CHANNELS 3 Xrotation Yrotation Zrotation
								JOINT LeftHandThumb1
								{
									OFFSET 6.715286 -2.359680 3.363841
									CHANNELS 3 Xrotation Yrotation Zrotation
									JOINT LeftHandThumb2
									{
										OFFSET 2.507072 -1.447464 1.447461
										CHANNELS 3 Xrotation Yrotation Zrotation
										JOINT LeftHandThumb3
										{
											OFFSET 2.898338 -1.673355 1.673357
											CHANNELS 3 Xrotation Yrotation Zrotation
											End Site
											{
												OFFSET -0.295959 3.727692 -0.131651
											}
										}
									}
								}
								JOINT LeftHandIndex1
								{
									OFFSET 14.190811 -0.254547 3.840278
									CHANNELS 3 Xrotation Yrotation Zrotation
									JOINT LeftHandIndex2
									{
										OFFSET 3.551727 0.000000 -0.000000
										CHANNELS 3 Xrotation Yrotation Zrotation
										JOINT LeftHandIndex3
										{
											OFFSET 2.894196 0.000000 0.000000
											CHANNELS 3 Xrotation Yrotation Zrotation
											End Site
											{
												OFFSET -1.000603 2.690872 0.366626
											}
										}
									}
								}
								JOINT LeftHandMiddle1
								{
									OFFSET 13.776489 0.000000 0.000000
									CHANNELS 3 Xrotation Yrotation Zrotation
									JOINT LeftHandMiddle2
									{
										OFFSET 3.438232 0.000000 0.000000
										CHANNELS 3 Xrotation Yrotation Zrotation
										JOINT LeftHandMiddle3
										{
											OFFSET 3.691551 0.000000 0.000000
											CHANNELS 3 Xrotation Yrotation Zrotation
											End Site
											{
												OFFSET -1.082298 3.499527 0.457670
											}
										}
									}
								}
								JOINT LeftHandRing1
								{
									OFFSET 13.966164 -0.268127 -3.067488
									CHANNELS 3 Xrotation Yrotation Zrotation
									JOINT LeftHandRing2
									{
										OFFSET 3.162567 0.000000 0.000000
										CHANNELS 3 Xrotation Yrotation Zrotation
										JOINT LeftHandRing3
										{
											OFFSET 3.324348 0.000000 0.000000
											CHANNELS 3 Xrotation Yrotation Zrotation
											End Site
											{
												OFFSET -0.861900 3.184998 0.405154
											}
										}
									}
								}
								JOINT LeftHandPinky1
								{
									OFFSET 13.131393 -0.168503 -5.746925
									CHANNELS 3 Xrotation Yrotation Zrotation
									JOINT LeftHandPinky2
									{
										OFFSET 2.849182 0.000000 0.000000
										CHANNELS 3 Xrotation Yrotation Zrotation
										JOINT LeftHandPinky3
										{
											OFFSET 2.805038 0.000000 0.000000
											CHANNELS 3 Xrotation Yrotation Zrotation
											End Site
											{
												OFFSET -0.882500 2.642609 0.325652
											}
										}
									}
								}
							}
							JOINT Left_Sleeve
							{
								OFFSET 6.592125 -0.646545 0.805568
								CHANNELS 3 Xrotation Yrotation Zrotation
								End Site
								{
									OFFSET -0.000179 20.275787 -0.000000
								}
							}
						}
					}
				}
				JOINT RightShoulder
				{
					OFFSET -5.731700 15.108002 -2.763700
					CHANNELS 3 Xrotation Yrotation Zrotation
					JOINT RightArm
					{
						OFFSET -9.825497 2.506317 -1.597400
						CHANNELS 3 Xrotation Yrotation Zrotation
						JOINT RightForeArm
						{
							OFFSET -21.966242 0.000000 0.000000
							CHANNELS 3 Xrotation Yrotation Zrotation
							JOINT RightHand
							{
								OFFSET -33.879032 0.000000 0.000000
								CHANNELS 3 Xrotation Yrotation Zrotation
								JOINT RightHandThumb1
								{
									OFFSET -6.715286 -2.359680 3.363841
									CHANNELS 3 Xrotation Yrotation Zrotation
									JOINT RightHandThumb2
									{
										OFFSET -2.507072 -1.447464 1.447461
										CHANNELS 3 Xrotation Yrotation Zrotation
										JOINT RightHandThumb3
										{
											OFFSET -2.898338 -1.673355 1.673357
											CHANNELS 3 Xrotation Yrotation Zrotation
											End Site
											{
												OFFSET 0.295959 3.727692 -0.131651
											}
										}
									}
								}
								JOINT RightHandIndex1
								{
									OFFSET -14.190811 -0.254547 3.840278
									CHANNELS 3 Xrotation Yrotation Zrotation
									JOINT RightHandIndex2
									{
										OFFSET -3.551727 0.000000 -0.000000
										CHANNELS 3 Xrotation Yrotation Zrotation
										JOINT RightHandIndex3
										{
											OFFSET -2.894196 0.000000 0.000000
											CHANNELS 3 Xrotation Yrotation Zrotation
											End Site
											{
												OFFSET 1.000603 2.690872 0.366626
											}
										}
									}
								}
								JOINT RightHandMiddle1
								{
									OFFSET -13.776489 0.000000 0.000000
									CHANNELS 3 Xrotation Yrotation Zrotation
									JOINT RightHandMiddle2
									{
										OFFSET -3.438232 0.000000 0.000000
										CHANNELS 3 Xrotation Yrotation Zrotation
										JOINT RightHandMiddle3
										{
											OFFSET -3.691551 0.000000 0.000000
											CHANNELS 3 Xrotation Yrotation Zrotation
											End Site
											{
												OFFSET 1.082298 3.499527 0.457670
											}
										}
									}
								}
								JOINT RightHandRing1
								{
									OFFSET -13.966164 -0.268127 -3.067488
									CHANNELS 3 Xrotation Yrotation Zrotation
									JOINT RightHandRing2
									{
										OFFSET -3.162567 0.000000 0.000000
										CHANNELS 3 Xrotation Yrotation Zrotation
										JOINT RightHandRing3
										{
											OFFSET -3.324348 0.000000 0.000000
											CHANNELS 3 Xrotation Yrotation Zrotation
											End Site
											{
												OFFSET 0.861900 3.184998 0.405154
											}
										}
									}
								}
								JOINT RightHandPinky1
								{
									OFFSET -13.131393 -0.168503 -5.746925
									CHANNELS 3 Xrotation Yrotation Zrotation
									JOINT RightHandPinky2
									{
										OFFSET -2.849182 0.000000 0.000000
										CHANNELS 3 Xrotation Yrotation Zrotation
										JOINT RightHandPinky3
										{
											OFFSET -2.805038 0.000000 0.000000
											CHANNELS 3 Xrotation Yrotation Zrotation
											End Site
											{
												OFFSET 0.882500 2.642609 0.325652
											}
										}
									}
								}
							}
							JOINT Right_Sleeve
							{
								OFFSET -6.592125 -0.646545 0.805568
								CHANNELS 3 Xrotation Yrotation Zrotation
								End Site
								{
									OFFSET 0.000179 20.275787 -0.000000
								}
							}
						}
					}
				}
				JOINT Bind_Right_JacketString
				{
					OFFSET -3.534800 11.969597 7.200700
					CHANNELS 3 Xrotation Yrotation Zrotation
					JOINT Bind_Right_JacketString1
					{
						OFFSET -0.319900 -6.102600 2.794100
						CHANNELS 3 Xrotation Yrotation Zrotation
						End Site
						{
							OFFSET 0.000000 6.719452 0.000000
						}
					}
				}
				JOINT Bind_Left_JacketString
				{
					OFFSET 2.904800 11.969597 7.200700
					CHANNELS 3 Xrotation Yrotation Zrotation
					JOINT Bind_Left_JacketString1
					{
						OFFSET 0.364800 -5.904503 3.186800
						CHANNELS 3 Xrotation Yrotation Zrotation
						End Site
						{
							OFFSET 0.000000 6.719513 0.000000
						}
					}
				}
				JOINT HairE
				{
					OFFSET 5.915200 17.612701 -11.592200
					CHANNELS 3 Xrotation Yrotation Zrotation
					JOINT HairE1
					{
						OFFSET 0.289200 -7.171898 -1.284500
						CHANNELS 3 Xrotation Yrotation Zrotation
						End Site
						{
							OFFSET 0.000000 7.291756 0.000000
						}
					}
				}
				JOINT HairF
				{
					OFFSET -0.864800 17.612701 -11.592200
					CHANNELS 3 Xrotation Yrotation Zrotation
					JOINT HairF1
					{
						OFFSET 0.000000 -14.087097 -2.127501
						CHANNELS 3 Xrotation Yrotation Zrotation
						End Site
						{
							OFFSET 0.000000 14.246841 0.000000
						}
					}
				}
				JOINT HairG
				{
					OFFSET -8.087700 17.612701 -11.592200
					CHANNELS 3 Xrotation Yrotation Zrotation
					JOINT HairG1
					{
						OFFSET -0.293600 -6.081398 -0.910100
						CHANNELS 3 Xrotation Yrotation Zrotation
						End Site
						{
							OFFSET 0.000000 6.156120 0.000000
						}
					}
				}
			}
		}
	}
	JOINT Pouch
	{
		OFFSET 0.000000 4.394501 10.847300
		CHANNELS 3 Xrotation Yrotation Zrotation
		End Site
		{
			OFFSET 0.000000 21.880577 0.000000
		}
	}
	JOINT Bag
	{
		OFFSET -13.229000 4.813004 -0.593300
		CHANNELS 3 Xrotation Yrotation Zrotation
		End Site
		{
			OFFSET 0.000000 21.880577 0.000000
		}
	}
	JOINT OccupyGuyFacialAnim_Joint
	{
		OFFSET 1.000000 -70.206398 -1.655000
		CHANNELS 3 Xrotation Yrotation Zrotation
		End Site
		{
			OFFSET 0.000000 21.880577 0.000000
		}
	}
}
MOTION
Frames: 5
Frame Time: 0.033333
0.988030 63.215050 3.388777 5.533326 -7.189321 -3.500425 0.000000 0.000000 -0.000000 -47.442614 3.991929 10.130466 77.419272 3.493956 -3.098929 -15.730127 -0.038132 -0.557234 0.000003 0.000000 -0.000000 0.000002 -0.000000 -0.000000 -51.483353 0.689513 6.633911 75.493323 -9.985499 -2.230495 -9.661675 1.005544 -1.849431 0.000001 0.000000 -0.000000 0.000002 -0.000000 -0.000000 17.865360 -3.412408 -1.464449 13.758439 -2.428587 -1.493276 13.775199 -2.267759 -1.557139 -5.673605 2.892643 -2.681650 1.052820 9.531917 2.345433 0.000004 0.000000 -0.000000 0.000004 0.000000 -0.000000 0.000004 0.000000 0.000000 0.000004 0.000000 -0.000000 0.000004 0.000000 -0.000000 0.000004 0.000000 -0.000000 0.000004 0.000000 -0.000000 0.000004 0.000000 -0.000000 0.000004 0.000000 -0.000000 7.274114 -6.516683 6.782947 -44.604363 -8.207000 -61.018164 -0.000005 -25.303020 -0.000013 23.071927 -17.216212 30.319316 0.698032 -10.183810 4.131106 0.073423 5.790420 0.682054 -0.000002 -0.000000 0.000001 1.533912 -4.349870 -0.203916 0.770220 3.642077 -29.538058 0.000003 -0.000000 0.000002 -0.308839 2.683700 -10.096010 1.155682 4.335851 -37.595058 0.000001 0.000001 0.000003 3.292412 14.630723 -22.621556 1.395019 3.555275 -35.623343 -0.000004 0.000001 -0.000001 3.364217 25.030342 -36.940259 0.889060 3.422061 -37.494303 0.000002 0.000000 0.000003 -0.000000 -0.000002 0.000002 11.247325 -13.713746 8.388670 -4.338936 -2.263701 71.544107 -0.000018 54.883691 -0.000011 30.411810 15.676534 -27.560452 -12.466849 5.886176 10.784555 3.668589 -3.159071 -3.205261 0.000001 0.000003 -0.000001 -0.923570 20.067634 11.752040 0.366439 -2.767884 19.977759 -0.000001 0.000000 -0.000001 -0.782892 -2.210594 15.010816 0.204844 -2.325656 15.170144 -0.000001 -0.000000 0.000003 2.233005 -14.999770 14.677540 0.920063 -2.933102 27.771899 0.000001 -0.000003 0.000000 1.069677 -27.023970 27.253976 0.300395 -2.212143 24.087183 -0.000000 0.000001 0.000002 -0.000000 0.000000 -0.000000 -0.000002 -0.000000 -0.000001 -0.000001 -0.000002 0.000001 -0.000002 -0.000000 -0.000001 -0.000002 -0.000000 -0.000001 -0.000002 -0.000000 -0.000001 -0.000001 -0.000002 0.000001 -0.000002 -0.000000 -0.000001 -0.000002 -0.000000 -0.000001 -0.000002 -0.000000 -0.000001 -0.000001 -0.000002 0.000001 0.000000 0.000000 -0.000000 0.000000 0.000000 -0.000000 0.000000 0.000000 -0.000000 
1.030475 62.786736 4.116539 3.130225 -7.385541 -3.231412 -0.000000 0.000000 -0.000000 -45.626575 4.495727 10.034134 79.806922 3.585786 -3.071322 -15.837090 0.017823 -0.889213 0.000002 0.000001 0.000000 0.000001 -0.000000 0.000000 -50.594220 1.067453 6.678947 78.718634 -11.083964 -2.455085 -9.232969 1.077634 -1.894541 0.000000 -0.000001 0.000000 0.000003 0.000000 -0.000000 17.338782 -3.802303 -1.633485 13.348848 -2.702340 -1.618470 13.368932 -2.537690 -1.685529 -5.011154 2.988786 -2.470368 2.997335 10.159360 1.376852 -0.000001 -0.000000 -0.000000 -0.000001 -0.000000 -0.000000 -0.000001 -0.000000 -0.000000 -0.000001 -0.000000 -0.000000 0.000003 0.000000 -0.000000 -0.000001 -0.000000 -0.000000 0.000003 0.000000 -0.000000 -0.000001 -0.000000 -0.000000 -0.000001 -0.000000 -0.000000 7.393760 -4.454319 5.331512 -41.082314 -6.284273 -60.720061 0.000004 -25.304157 -0.000003 22.861130 -16.354871 28.476266 0.367250 -9.925067 2.695490 0.090803 5.847409 0.676633 0.000003 -0.000001 0.000002 1.341542 -4.129563 -1.022129 0.768471 3.638984 -29.503306 0.000001 0.000003 -0.000003 -0.359333 2.607535 -10.650527 1.164635 4.347879 -37.745620 -0.000000 0.000002 0.000003 3.448633 14.493649 -24.099662 1.477915 3.647617 -36.867947 0.000003 0.000000 -0.000002 3.778883 25.053610 -39.151823 0.958730 3.528155 -38.757249 -0.000001 0.000002 -0.000000 -0.000000 0.000001 -0.000001 11.477644 -15.609185 8.448137 0.321534 -1.906178 71.441299 0.000008 55.365302 -0.000012 30.074788 14.369972 -23.804258 -13.129632 7.178630 9.814599 3.653229 -3.124911 -3.205070 0.000000 -0.000001 -0.000005 -2.617942 18.176385 14.666399 0.581682 -3.280799 25.494916 -0.000000 0.000000 -0.000001 -0.987849 -1.415337 15.097865 0.177722 -2.212643 14.007063 -0.000000 0.000000 0.000004 1.981233 -14.551247 13.618820 0.893319 -2.892196 27.282192 0.000001 -0.000000 -0.000001 0.869265 -26.559332 25.158508 0.298309 -2.206169 24.024371 0.000001 0.000003 0.000006 -0.000001 0.000002 -0.000001 0.000000 0.000000 -0.000000 0.000000 0.000001 0.000001 0.000000 0.000000 -0.000000 0.000000 0.000000 -0.000000 0.000000 0.000000 -0.000000 0.000000 0.000001 0.000001 0.000000 0.000000 -0.000000 0.000000 0.000000 -0.000000 0.000000 0.000000 -0.000000 0.000000 0.000001 0.000001 -0.000000 0.000000 -0.000000 -0.000000 0.000000 -0.000000 -0.000000 0.000000 -0.000000 
1.097954 62.215416 4.883561 0.535136 -7.857562 -3.013895 -0.000000 0.000001 0.000000 -43.585831 5.180255 10.153189 82.408643 3.651835 -3.133271 -16.398880 0.081163 -1.195231 0.000001 0.000000 -0.000000 0.000000 0.000000 -0.000000 -49.638963 1.553922 6.805078 82.108177 -11.691434 -2.825969 -8.677914 1.075433 -1.445376 -0.000001 -0.000000 0.000001 0.000001 0.000000 -0.000000 16.846289 -3.866615 -1.735488 12.959101 -2.733198 -1.667534 12.979460 -2.570999 -1.734018 -4.200771 3.025967 -2.280464 5.145396 10.517655 0.149452 -0.000003 -0.000000 -0.000000 -0.000003 -0.000000 -0.000000 -0.000003 -0.000000 -0.000000 -0.000003 -0.000000 -0.000000 -0.000005 0.000000 -0.000000 -0.000003 -0.000000 -0.000000 -0.000005 0.000000 -0.000000 -0.000003 -0.000000 -0.000000 -0.000003 -0.000000 -0.000000 7.560282 -2.068649 3.956241 -37.502854 -3.988401 -60.665686 0.000003 -25.305281 0.000000 21.687005 -16.310217 27.045353 0.127929 -9.156101 0.724599 0.204567 6.225402 0.640243 -0.000001 0.000002 0.000001 1.119122 -3.902508 -1.897228 0.758219 3.620808 -29.296256 -0.000002 0.000001 0.000000 -0.430306 2.500740 -11.383489 1.150242 4.328526 -37.503650 -0.000004 0.000003 -0.000002 3.582503 14.308452 -25.622335 1.533065 3.706830 -37.679449 -0.000004 0.000000 -0.000001 4.453590 25.161432 -41.660558 0.998176 3.585990 -39.453816 0.000003 0.000000 0.000001 0.000001 -0.000002 0.000002 11.582427 -17.491102 8.143514 4.227921 -2.469214 71.372137 0.000008 55.809660 -0.000016 28.438515 12.639239 -21.641333 -13.022804 6.587115 10.618846 3.515813 -2.815831 -3.204483 -0.000000 -0.000002 0.000000 -2.911894 16.232848 14.650158 0.717404 -3.546958 28.458987 -0.000002 -0.000001 0.000002 -1.149340 -0.792695 15.169632 0.153852 -2.103698 12.891103 -0.000001 -0.000000 -0.000001 1.753686 -13.733119 13.137825 0.857357 -2.835948 26.613453 0.000001 -0.000002 0.000001 0.868961 -26.240274 23.618745 0.270823 -2.125111 23.174115 -0.000002 -0.000002 -0.000001 0.000002 -0.000002 0.000001 0.000000 -0.000001 -0.000000 0.000000 -0.000002 -0.000001 0.000000 -0.000001 -0.000000 0.000000 -0.000001 -0.000000 0.000000 -0.000001 -0.000000 0.000000 -0.000002 -0.000001 0.000000 -0.000001 -0.000000 0.000000 -0.000001 -0.000000 0.000000 -0.000001 -0.000000 0.000000 -0.000002 -0.000001 -0.000000 0.000001 0.000000 -0.000000 0.000001 0.000000 -0.000000 0.000001 0.000000 
1.178407 61.503181 5.673179 -1.951466 -8.294851 -2.655429 -0.000000 0.000000 0.000000 -41.747776 5.901436 10.090229 85.271066 3.684987 -3.180806 -16.989740 0.156613 -1.513879 0.000002 0.000001 -0.000000 -0.000001 -0.000000 -0.000000 -48.730272 2.101437 6.679530 85.609564 -11.866198 -3.229951 -8.501221 1.041031 -0.831927 0.000001 -0.000001 0.000000 0.000002 0.000000 -0.000000 16.256685 -3.786011 -1.823770 12.495788 -2.670889 -1.695036 12.514743 -2.520118 -1.756925 -3.253586 2.972942 -2.050681 7.553878 10.501522 -0.976312 -0.000001 -0.000000 0.000000 -0.000001 -0.000000 0.000000 -0.000001 -0.000000 0.000000 -0.000001 -0.000000 0.000000 -0.000001 -0.000000 0.000000 -0.000001 -0.000000 0.000000 -0.000001 -0.000000 0.000000 -0.000001 -0.000000 0.000000 -0.000001 -0.000000 0.000000 7.727312 0.594666 2.998175 -34.255110 -1.458393 -61.145295 0.000007 -25.306396 0.000018 20.415770 -16.325528 26.661051 -0.028693 -8.933600 -0.159230 0.202304 6.216418 0.641099 0.000004 -0.000000 0.000003 1.049911 -3.799799 -1.904960 0.736038 3.580988 -28.843930 0.000002 0.000001 -0.000000 -0.437320 2.389841 -11.208509 1.112107 4.276299 -36.854789 0.000002 0.000001 -0.000001 3.647435 14.210210 -26.417643 1.543283 3.717650 -37.828716 -0.000002 0.000001 0.000000 4.873196 25.236261 -42.906927 1.000749 3.589714 -39.498779 -0.000001 -0.000001 -0.000001 0.000003 -0.000000 0.000000 11.545129 -19.286666 7.500773 7.886616 -3.325283 71.065161 -0.000001 56.224936 -0.000005 25.963026 11.295993 -19.986855 -12.927671 6.097029 11.300851 3.435895 -2.635929 -3.203865 -0.000000 0.000000 -0.000004 -2.898508 15.258216 13.832409 0.783635 -3.665569 29.806973 -0.000000 0.000000 -0.000001 -1.179853 -0.539012 14.897269 0.133487 -2.001513 11.848663 -0.000001 -0.000000 -0.000001 1.619831 -13.246748 12.805142 0.816024 -2.769464 25.829264 -0.000001 -0.000003 -0.000002 1.042451 -25.950441 22.620965 0.249367 -2.058908 22.482790 -0.000003 -0.000001 0.000000 0.000000 -0.000000 -0.000001 -0.000001 0.000000 -0.000000 0.000000 0.000000 0.000000 -0.000001 0.000000 -0.000001 -0.000001 0.000000 -0.000001 -0.000001 0.000000 -0.000000 0.000000 0.000000 -0.000000 -0.000001 0.000000 -0.000001 -0.000001 0.000000 -0.000001 -0.000001 0.000000 -0.000000 0.000000 0.000000 -0.000000 -0.000000 0.000000 0.000000 -0.000000 0.000000 0.000000 -0.000000 0.000000 0.000000 
1.235234 60.724075 6.461693 -4.118083 -8.314797 -1.980144 -0.000000 0.000000 -0.000000 -40.220163 6.525358 9.499208 88.107111 3.546185 -3.117038 -17.409799 0.236727 -1.775702 0.000001 0.000001 -0.000000 -0.000005 0.000000 -0.000000 -48.013238 2.670375 6.044946 89.169424 -12.046548 -3.512351 -8.612272 1.007711 -0.270741 -0.000001 -0.000000 0.000001 -0.000000 0.000000 -0.000000 15.505873 -3.671721 -1.903887 11.911433 -2.613177 -1.694724 11.927502 -2.492359 -1.746506 -2.182299 2.836019 -1.834110 10.094045 10.038749 -1.716025 -0.000000 0.000000 0.000000 -0.000000 0.000000 0.000000 -0.000000 0.000000 0.000000 -0.000000 0.000000 0.000000 0.000001 0.000000 0.000000 -0.000000 0.000000 0.000000 0.000001 0.000000 0.000000 -0.000000 0.000000 0.000000 -0.000000 0.000000 0.000000 7.841639 3.171031 2.574305 -31.705479 1.139584 -62.363076 -0.000010 -25.307521 -0.000022 20.693064 -16.545163 27.109571 -0.203544 -9.396701 0.049440 0.017677 5.597587 0.700160 0.000001 0.000002 0.000002 1.218448 -4.057222 -0.242238 0.708733 3.530945 -28.278235 0.000000 0.000003 0.000000 -0.349923 2.055813 -9.339553 1.055217 4.196070 -35.868240 0.000003 0.000001 -0.000001 3.493707 14.257077 -25.132682 1.509958 3.682242 -37.340856 -0.000000 -0.000001 0.000001 4.662439 25.114874 -41.808022 0.960947 3.531435 -38.796574 -0.000006 -0.000002 0.000003 0.000002 0.000002 -0.000001 11.317344 -20.996946 6.427736 11.467649 -4.291915 70.703980 -0.000013 56.107798 0.000002 25.002372 10.971234 -18.613218 -12.577706 5.537506 11.649910 3.422064 -2.605210 -3.203551 0.000000 0.000000 -0.000003 -2.394624 14.898449 11.614361 0.711200 -3.535517 28.329803 0.000002 -0.000000 0.000000 -1.010450 -0.675948 13.690192 0.116542 -1.908027 10.898248 0.000000 0.000001 -0.000002 1.489237 -12.982748 12.110395 0.776189 -2.703388 25.056447 0.000000 0.000001 0.000000 1.052387 -25.764761 21.183039 0.246976 -2.051391 22.404547 0.000000 0.000003 0.000001 0.000002 -0.000000 0.000001 -0.000000 0.000001 0.000001 0.000003 0.000001 0.000001 -0.000000 0.000001 -0.000000 -0.000000 0.000001 -0.000000 -0.000000 0.000001 0.000001 0.000003 0.000001 0.000001 -0.000000 0.000001 -0.000000 -0.000000 0.000001 -0.000000 -0.000000 0.000001 0.000001 0.000003 0.000001 0.000001 -0.000000 0.000000 -0.000000 -0.000000 0.000000 -0.000000 -0.000000 0.000000 -0.000000 
